{"title":"Naruto Shippuuden - 355 [Hi10 720p] [ENG-SUBBED] [GWC].mp4","uid":9755716,"size":100001775,"categoryP":"video","categoryS":"tv_shows","magnet":"?xt=urn:btih:1c3d8e9f40b57a3ae6362e7d80b5c5812425191d&amp;dn=Naruto+Shippuuden+-+355+%5BHi10+720p%5D+%5BENG-SUBBED%5D+%5BGWC%5D.mp4&amp;tr=udp%3A%2F%2Ftracker.openbittorrent.com%3A80&amp;tr=udp%3A%2F%2Fopen.demonii.com%3A1337&amp;tr=udp%3A%2F%2Ftracker.coppersurfer.tk%3A6969&amp;tr=udp%3A%2F%2Fexodus.desync.com%3A6969","seeders":1,"leechers":0,"uploader":"canc232","files":1,"time":1394727925,"description":"Naruto Shippuuden - 355 [Hi10 720p] [ENG-SUBBED] [GWC] \n\nSTORYLINE :\nNaruto Uzumaki, is a loud, hyperactive, adolescent ninja who constantly searches for approval and recognition, as well as to become Hokage, who is acknowledged as the leader and strongest of all ninja in the village.\n\n\nSCREENS : &lt;a href=&quot;\nhttp://img850.imageshack.us/img850/1768/ko9p.jpg&quot; rel=&quot;nofollow&quot; target=&quot;_NEW&quot;&gt;\nhttp://img850.imageshack.us/img850/1768/ko9p.jpg&lt;/a&gt;\n\n\nMEDIA INFO :\nGeneral \nFormat : MPEG-4 \nFormat profile : Base Media \nFile size : 94.8 MiB \nDuration : 21mn 39s \nOverall bit rate mode : Variable \nOverall bit rate : 612 Kbps \n\nVideo \nFormat : AVC \nFormat profile : High &lt;a class=&quot;__cf_email__&quot; href=&quot;/cdn-cgi/l/email-protection&quot; data-cfemail=&quot;49787909057d6778&quot;&gt;[email&amp;#160;protected]&lt;/a&gt;&lt;script cf-hash='f9e31' type=&quot;text/javascript&quot;&gt;\n/* &lt;![CDATA[ */!function(){try{var t=&quot;currentScript&quot;in document?document.currentScript:function(){for(var t=document.getElementsByTagName(&quot;script&quot;),e=t.length;e--;)if(t[e].getAttribute(&quot;cf-hash&quot;))return t[e]}();if(t&amp;&amp;t.previousSibling){var e,r,n,i,c=t.previousSibling,a=c.getAttribute(&quot;data-cfemail&quot;);if(a){for(e=&quot;&quot;,r=parseInt(a.substr(0,2),16),n=2;a.length-n;n+=2)i=parseInt(a.substr(n,2),16)^r,e+=String.fromCharCode(i);e=document.createTextNode(e),c.parentNode.replaceChild(e,c)}}}catch(u){}}();/* ]]&gt; */&lt;/script&gt; \nFormat settings, CABAC : Yes \nFormat settings, ReFrames : 10 frames \nDuration : 21mn 39s \nBit rate : 552 Kbps \nMaximum bit rate : 4 358 Kbps \nWidth : 1 280 pixels \nHeight : 720 pixels \nDisplay aspect ratio : 16:9 \nFrame rate : 23.976 fps \nStream size : 85.5 MiB (90%) \nTitle : Naruto Shippuuden - 355 [Hi10 720p] [ENG-SUBBED] [GWC] \nWriting library : x264 core\n\nAudio \nFormat : AAC \nFormat profile : HE-AAC / LC \nDuration : 20mn 14s \nBit rate mode : Variable \nChannel(s) : 2 channels \nSampling rate : 48.0 KHz / 24.0 KHz \nStream size : 9.27 MiB (10%) \nLanguage : Japanese \n\n\nText \nFormat : Timed Text \nDuration : 21mn 35s \nBit rate mode : Variable \nTitle : [GWC] \nLanguage : English ","torrent":{"xt":"urn:btih:1c3d8e9f40b57a3ae6362e7d80b5c5812425191d","amp;dn":"Naruto+Shippuuden+-+355+%5BHi10+720p%5D+%5BENG-SUBBED%5D+%5BGWC%5D.mp4","amp;tr":["udp%3A%2F%2Ftracker.openbittorrent.com%3A80","udp%3A%2F%2Fopen.demonii.com%3A1337","udp%3A%2F%2Ftracker.coppersurfer.tk%3A6969","udp%3A%2F%2Fexodus.desync.com%3A6969"],"infoHash":"1c3d8e9f40b57a3ae6362e7d80b5c5812425191d","infoHashBuffer":{"type":"Buffer","data":[28,61,142,159,64,181,122,58,230,54,46,125,128,181,197,129,36,37,25,29]},"announce":[],"urlList":[]}}